<?xml version="1.0" encoding="UTF-8" standalone="no"?>
<!DOCTYPE svg PUBLIC "-//W3C//DTD SVG 1.1//EN" "http://www.w3.org/Graphics/SVG/1.1/DTD/svg11.dtd">
<svg width="100%" height="100%" viewBox="0 0 1080 1080" version="1.1" xmlns="http://www.w3.org/2000/svg" xmlns:xlink="http://www.w3.org/1999/xlink" xml:space="preserve" xmlns:serif="http://www.serif.com/" style="fill-rule:evenodd;clip-rule:evenodd;stroke-linejoin:round;stroke-miterlimit:2;">
    <g id="Logo">
        <clipPath id="_clip1">
            <path d="M1080,106.202L1080,975.798C1080,1034.41 1032.41,1082 973.798,1082L106.202,1082C47.588,1082 0,1034.41 0,975.798L0,106.202C0,47.588 47.588,0 106.202,0L973.798,0C1032.41,0 1080,47.588 1080,106.202Z"/>
        </clipPath>
        <g clip-path="url(#_clip1)">
            <g id="Background" transform="matrix(1.06272,0,0,1.06272,-60.3881,-67.7427)">
                <rect x="56.824" y="61.862" width="1018.14" height="1018.14" style="fill:rgb(163,218,245);"/>
            </g>
            <g id="Logo-Shape" serif:id="Logo Shape">
                <g transform="matrix(0.971466,0,0,0.971466,0,0)">
                    <path d="M360.159,720.319C161.382,720.319 0,558.937 0,360.159C0,161.382 161.382,0 360.159,0L360.159,99.331C216.204,99.331 99.331,216.204 99.331,360.159C99.331,504.114 216.204,620.988 360.159,620.988L360.159,720.319ZM360.159,606.23C224.349,606.23 114.089,495.969 114.089,360.159C114.089,224.349 224.349,114.089 360.159,114.089L360.159,213.463C279.196,213.463 213.463,279.196 213.463,360.159C213.463,441.123 279.196,506.855 360.159,506.855L360.159,606.23ZM360.159,492.11C287.334,492.11 228.209,432.985 228.209,360.159C228.209,287.334 287.334,228.209 360.159,228.209L360.159,327.172C341.953,327.172 327.172,341.953 327.172,360.159C327.172,378.366 341.953,393.147 360.159,393.147L360.159,492.11Z" style="fill:rgb(249,195,151);"/>
                </g>
                <g transform="matrix(-0.971466,0,0,0.971466,1080,382.235)">
                    <path d="M360.159,720.319C161.382,720.319 0,558.937 0,360.159C0,161.382 161.382,0 360.159,0L360.159,99.331C216.204,99.331 99.331,216.204 99.331,360.159C99.331,504.114 216.204,620.988 360.159,620.988L360.159,720.319ZM360.159,606.23C224.349,606.23 114.089,495.969 114.089,360.159C114.089,224.349 224.349,114.089 360.159,114.089L360.159,213.463C279.196,213.463 213.463,279.196 213.463,360.159C213.463,441.123 279.196,506.855 360.159,506.855L360.159,606.23ZM360.159,492.11C287.334,492.11 228.209,432.985 228.209,360.159C228.209,287.334 287.334,228.209 360.159,228.209L360.159,327.172C341.953,327.172 327.172,341.953 327.172,360.159C327.172,378.366 341.953,393.147 360.159,393.147L360.159,492.11Z" style="fill:rgb(249,195,151);"/>
                </g>
                <g transform="matrix(-0.971466,0,0,0.971466,1080,0)">
                    <path d="M360.159,326.028L360.159,228.209C299.135,228.209 247.731,269.724 232.673,326.028L360.159,326.028ZM217.462,326.028C232.862,261.502 290.945,213.463 360.159,213.463L360.159,114.089C235.93,114.089 133.078,206.347 116.441,326.028L217.462,326.028ZM101.548,326.028C118.289,198.176 227.772,99.331 360.159,99.331L360.159,0C172.893,0 18.816,143.233 1.599,326.028L101.548,326.028Z" style="fill:rgb(249,195,151);"/>
                </g>
                <g id="Blocks">
                    <g transform="matrix(1.05714,0,0,1.05427,-30.8573,-59.6435)">
                        <rect x="360.159" y="629.424" width="359.681" height="90.895" style="fill:rgb(249,195,151);"/>
                    </g>
                    <g transform="matrix(1.05714,0,0,1.0628,-30.8573,-176.57)">
                        <rect x="360.159" y="629.424" width="359.681" height="90.895" style="fill:rgb(249,195,151);"/>
                    </g>
                    <g transform="matrix(1.05714,0,0,1.05763,-30.8573,-283.763)">
                        <rect x="360.159" y="629.424" width="359.681" height="90.895" style="fill:rgb(249,195,151);"/>
                    </g>
                    <g transform="matrix(1.05714,0,0,1.04673,-30.8573,-437.252)">
                        <rect x="360.159" y="629.424" width="359.681" height="90.895" style="fill:rgb(249,195,151);"/>
                    </g>
                    <g transform="matrix(1.05714,0,0,1.06206,-30.8573,-557.652)">
                        <rect x="360.159" y="629.424" width="359.681" height="90.895" style="fill:rgb(249,195,151);"/>
                    </g>
                    <g transform="matrix(1.05714,0,0,1.06177,-30.8573,-668.301)">
                        <rect x="360.159" y="629.424" width="359.681" height="90.895" style="fill:rgb(249,195,151);"/>
                    </g>
                    <g transform="matrix(2.0299,0,0,1.05905,-731.087,97.5646)">
                        <rect x="360.159" y="629.424" width="359.681" height="90.895" style="fill:rgb(249,195,151);"/>
                    </g>
                    <g transform="matrix(2.0299,0,0,1.0598,-731.087,207.582)">
                        <rect x="360.159" y="629.424" width="359.681" height="90.895" style="fill:rgb(249,195,151);"/>
                    </g>
                    <g transform="matrix(2.0299,0,0,1.0598,-731.087,318.441)">
                        <rect x="360.159" y="629.424" width="359.681" height="90.895" style="fill:rgb(249,195,151);"/>
                    </g>
                </g>
            </g>
            <g id="Logo-Shape1" serif:id="Logo Shape">
                <g transform="matrix(0.971466,0,0,0.971466,0,0)">
                    <path d="M360.159,720.319C161.382,720.319 0,558.937 0,360.159C0,161.382 161.382,0 360.159,0L360.159,99.331C216.204,99.331 99.331,216.204 99.331,360.159C99.331,504.114 216.204,620.988 360.159,620.988L360.159,720.319ZM360.159,606.23C224.349,606.23 114.089,495.969 114.089,360.159C114.089,224.349 224.349,114.089 360.159,114.089L360.159,213.463C279.196,213.463 213.463,279.196 213.463,360.159C213.463,441.123 279.196,506.855 360.159,506.855L360.159,606.23ZM360.159,492.11C287.334,492.11 228.209,432.985 228.209,360.159C228.209,287.334 287.334,228.209 360.159,228.209L360.159,327.172C341.953,327.172 327.172,341.953 327.172,360.159C327.172,378.366 341.953,393.147 360.159,393.147L360.159,492.11Z" style="fill:rgb(250,242,156);"/>
                </g>
                <g transform="matrix(-0.971466,0,0,0.971466,1080,382.235)">
                    <path d="M360.159,720.319C161.382,720.319 0,558.937 0,360.159C0,161.382 161.382,0 360.159,0L360.159,99.331C216.204,99.331 99.331,216.204 99.331,360.159C99.331,504.114 216.204,620.988 360.159,620.988L360.159,720.319ZM360.159,606.23C224.349,606.23 114.089,495.969 114.089,360.159C114.089,224.349 224.349,114.089 360.159,114.089L360.159,213.463C279.196,213.463 213.463,279.196 213.463,360.159C213.463,441.123 279.196,506.855 360.159,506.855L360.159,606.23ZM360.159,492.11C287.334,492.11 228.209,432.985 228.209,360.159C228.209,287.334 287.334,228.209 360.159,228.209L360.159,327.172C341.953,327.172 327.172,341.953 327.172,360.159C327.172,378.366 341.953,393.147 360.159,393.147L360.159,492.11Z" style="fill:rgb(250,242,156);"/>
                </g>
                <g transform="matrix(-0.971466,0,0,0.971466,1080,0)">
                    <path d="M360.159,326.028L360.159,228.209C299.135,228.209 247.731,269.724 232.673,326.028L360.159,326.028ZM217.462,326.028C232.862,261.502 290.945,213.463 360.159,213.463L360.159,114.089C235.93,114.089 133.078,206.347 116.441,326.028L217.462,326.028ZM101.548,326.028C118.289,198.176 227.772,99.331 360.159,99.331L360.159,0C172.893,0 18.816,143.233 1.599,326.028L101.548,326.028Z" style="fill:rgb(250,242,156);"/>
                </g>
                <g id="Blocks1" serif:id="Blocks">
                    <g transform="matrix(1.05714,0,0,1.05427,-30.8573,-59.6435)">
                        <rect x="360.159" y="629.424" width="359.681" height="90.895" style="fill:rgb(250,242,156);"/>
                    </g>
                    <g transform="matrix(1.05714,0,0,1.0628,-30.8573,-176.57)">
                        <rect x="360.159" y="629.424" width="359.681" height="90.895" style="fill:rgb(250,242,156);"/>
                    </g>
                    <g transform="matrix(1.05714,0,0,1.05763,-30.8573,-283.763)">
                        <rect x="360.159" y="629.424" width="359.681" height="90.895" style="fill:rgb(250,242,156);"/>
                    </g>
                    <g transform="matrix(1.05714,0,0,1.04673,-30.8573,-437.252)">
                        <rect x="360.159" y="629.424" width="359.681" height="90.895" style="fill:rgb(250,242,156);"/>
                    </g>
                    <g transform="matrix(1.05714,0,0,1.06206,-30.8573,-557.652)">
                        <rect x="360.159" y="629.424" width="359.681" height="90.895" style="fill:rgb(250,242,156);"/>
                    </g>
                    <g transform="matrix(1.05714,0,0,1.06177,-30.8573,-668.301)">
                        <rect x="360.159" y="629.424" width="359.681" height="90.895" style="fill:rgb(250,242,156);"/>
                    </g>
                    <g transform="matrix(2.0299,0,0,1.05905,-731.087,97.5646)">
                        <rect x="360.159" y="629.424" width="359.681" height="90.895" style="fill:rgb(250,242,156);"/>
                    </g>
                    <g transform="matrix(2.0299,0,0,1.0598,-731.087,207.582)">
                        <rect x="360.159" y="629.424" width="359.681" height="90.895" style="fill:rgb(250,242,156);"/>
                    </g>
                    <g transform="matrix(2.0299,0,0,1.0598,-731.087,318.441)">
                        <rect x="360.159" y="629.424" width="359.681" height="90.895" style="fill:rgb(250,242,156);"/>
                    </g>
                </g>
            </g>
        </g>
    </g>
</svg>
