<?xml version="1.0" encoding="UTF-8" standalone="no"?>
<!DOCTYPE svg PUBLIC "-//W3C//DTD SVG 1.1//EN" "http://www.w3.org/Graphics/SVG/1.1/DTD/svg11.dtd">
<svg width="100%" height="100%" viewBox="0 0 1080 1080" version="1.1" xmlns="http://www.w3.org/2000/svg" xmlns:xlink="http://www.w3.org/1999/xlink" xml:space="preserve" xmlns:serif="http://www.serif.com/" style="fill-rule:evenodd;clip-rule:evenodd;stroke-linejoin:round;stroke-miterlimit:2;">
    <g transform="matrix(1.02366,0,0,1.03669,-25.5486,-39.6246)">
        <rect x="24.958" y="38.222" width="1055.04" height="1041.78" style="fill:rgb(156,219,250);"/>
    </g>
    <g>
        <g transform="matrix(1.63374,0,0,1.71403,-434.113,354.913)">
            <g transform="matrix(576,0,0,576,884.245,323.983)">
            </g>
            <text x="380.245px" y="323.983px" style="font-family:'C64Pro', 'C64 Pro';font-size:576px;fill:rgb(203,156,250);">t</text>
        </g>
        <g transform="matrix(6.8222e-17,1.11415,-5.15148,3.15437e-16,1428.89,-84.7651)">
            <rect x="76.08" y="91.739" width="111.031" height="161.62" style="fill:rgb(203,156,250);"/>
        </g>
        <g transform="matrix(6.8222e-17,1.11415,-5.15148,3.15437e-16,1428.89,871.53)">
            <rect x="76.08" y="91.739" width="111.031" height="161.62" style="fill:rgb(203,156,250);"/>
        </g>
        <g transform="matrix(1.11415,0,0,5.15152,-84.7591,-348.891)">
            <rect x="76.08" y="91.739" width="111.031" height="161.62" style="fill:rgb(203,156,250);"/>
        </g>
        <g transform="matrix(1.11415,0,0,5.15152,871.53,-348.891)">
            <rect x="76.08" y="91.739" width="111.031" height="161.62" style="fill:rgb(203,156,250);"/>
        </g>
    </g>
</svg>
